Coordinates
version=1
nRows=32
nColumns=22
inDegrees=yes

Units are S.I. units (second, meters, Newtons, ...)
If the header above contains a line with 'inDegrees', this indicates whether rotational values are in degrees (yes) or radians (no).

endheader
time	pelvis_tilt	pelvis_list	pelvis_rotation	pelvis_tx	pelvis_ty	pelvis_tz	hip_flexion_r	hip_adduction_r	hip_rotation_r	knee_angle_r	ankle_angle_r	subtalar_angle_r	hip_flexion_l	hip_adduction_l	hip_rotation_l	knee_angle_l	ankle_angle_l	subtalar_angle_l	lumbar_extension	lumbar_bending	lumbar_rotation
      2.70000000	      1.91386555	     -0.06241238	     -6.93855688	     -0.66913680	      0.92631452	      0.02077607	     22.77559259	      0.28230450	      0.47675158	    -63.94733146	     -4.47143618	      3.31452786	      3.75472691	      2.50775949	    -12.84182017	    -21.34253954	     12.14343020	     -6.14147941	    -10.43928451	     -3.93587960	     -3.06412055
      2.71000000	      2.08470973	     -0.35315357	     -6.50297550	     -0.66034742	      0.92697902	      0.02016265	     23.44403009	      0.46488798	     -0.08579036	    -61.96696941	     -3.82842705	      3.42666723	      2.64010533	      2.36397472	    -12.55859115	    -20.72559810	     12.51647391	     -5.86668036	    -10.67945630	     -3.46366243	     -3.64061931
      2.72000000	      2.23793578	     -0.61818555	     -6.06630747	     -0.65151131	      0.92747554	      0.01955589	     24.00305671	      0.59796005	     -0.67109097	    -59.69894055	     -3.28659271	      3.51250723	      1.54502948	      2.23066274	    -12.27229649	    -20.10732913	     12.87946454	     -5.60524170	    -10.89420404	     -3.01852976	     -4.22054887
      2.73000000	      2.37344774	     -0.85120667	     -5.63132366	     -0.64262496	      0.92779672	      0.01898362	     24.44808084	      0.68532950	     -1.27434819	    -57.14671762	     -2.84524383	      3.55432570	      0.46688174	      2.11538186	    -11.97790671	    -19.48572656	     13.20593387	     -5.41964569	    -11.08176139	     -2.61537232	     -4.80124832
      2.74000000	      2.44277787	     -1.04180599	     -5.18025729	     -0.63369440	      0.92784468	      0.01839692	     24.83255253	      0.71274648	     -1.92031121	    -54.32865874	     -2.45894630	      3.58066915	     -0.52094314	      2.02503572	    -11.65061535	    -18.90091943	     13.49775725	     -5.37831197	    -11.18732811	     -2.25421252	     -5.41642197
      2.75000000	      2.53227640	     -1.21919726	     -4.75765430	     -0.62465386	      0.92778845	      0.01787126	     25.04280660	      0.73399398	     -2.56829441	    -51.21920591	     -2.24222378	      3.53715068	     -1.55695560	      1.94634675	    -11.30364534	    -18.28173843	     13.70984573	     -5.42365832	    -11.30711979	     -1.91855150	     -6.00134774
      2.76000000	      2.64845759	     -1.36126521	     -4.38714368	     -0.61550017	      0.92760858	      0.01747066	     25.07963259	      0.75442895	     -3.17383325	    -47.84203100	     -2.12810158	      3.39361825	     -2.64756047	      1.89769053	    -11.00001018	    -17.62595555	     13.88996878	     -5.54819654	    -11.44656124	     -1.64527173	     -6.51541609
      2.77000000	      2.67817574	     -1.47355604	     -3.99269316	     -0.60626269	      0.92710794	      0.01706761	     25.07487637	      0.74794408	     -3.83931748	    -44.23415638	     -2.11154668	      3.30081598	     -3.60420249	      1.85121654	    -10.66582015	    -17.05482489	     14.08384628	     -5.68833830	    -11.47744022	     -1.39806518	     -7.07012464
      2.78000000	      2.68639274	     -1.55373054	     -3.60440068	     -0.59691047	      0.92638403	      0.01672846	     24.96307216	      0.73903370	     -4.50621783	    -40.41723471	     -2.20441829	      3.24416293	     -4.51960585	      1.81501862	    -10.36639293	    -16.52798738	     14.30610616	     -5.78366446	    -11.47441312	     -1.19649228	     -7.61043190
      2.79000000	      2.66829552	     -1.60254314	     -3.23013644	     -0.58741880	      0.92541689	      0.01648400	     24.76510489	      0.73844424	     -5.16286905	    -36.43890517	     -2.39088602	      3.25561847	     -5.38886923	      1.78814865	    -10.09196419	    -16.04898728	     14.55737585	     -5.80774927	    -11.42619927	     -1.04237775	     -8.12157738
      2.80000000	      2.60780389	     -1.60274654	     -2.84693102	     -0.57784016	      0.92415323	      0.01630559	     24.52447601	      0.73158408	     -5.77610032	    -32.36501121	     -2.64620438	      3.35757472	     -6.15846085	      1.78346677	     -9.82306636	    -15.68236249	     14.88211217	     -5.77397161	    -11.32338311	     -0.95193864	     -8.63944751
      2.81000000	      2.53894977	     -1.55572765	     -2.48340293	     -0.56810580	      0.92264004	      0.01621547	     24.22958330	      0.72087151	     -6.32364797	    -28.27763603	     -2.90004729	      3.54635213	     -6.90530342	      1.81332661	     -9.57272919	    -15.36090025	     15.23261888	     -5.68274791	    -11.19590034	     -0.92711700	     -9.10633105
      2.82000000	      2.45758281	     -1.45658848	     -2.12719407	     -0.55825723	      0.92086346	      0.01623161	     23.91975905	      0.69615452	     -6.78078216	    -24.27330530	     -3.11304721	      3.82059310	     -7.60555831	      1.87814728	     -9.31609389	    -15.12013717	     15.61877351	     -5.54818450	    -11.04668594	     -0.98009984	     -9.53827433
      2.83000000	      2.35776386	     -1.30763856	     -1.77630191	     -0.54832180	      0.91882290	      0.01631456	     23.63973317	      0.64375234	     -7.12646850	    -20.46206713	     -3.26373020	      4.15780707	     -8.25107762	      1.97914335	     -9.04864505	    -14.96276102	     16.03583987	     -5.38837816	    -10.87378532	     -1.09718122	     -9.93608476
      2.84000000	      2.22082468	     -1.12310932	     -1.42143801	     -0.53834049	      0.91652468	      0.01646079	     23.44641898	      0.55831739	     -7.38294000	    -16.95615172	     -3.39048189	      4.47811963	     -8.81135796	      2.09762824	     -8.76637802	    -14.90582409	     16.49694765	     -5.24218779	    -10.66294380	     -1.26439236	    -10.31753247
      2.85000000	      2.12266391	     -0.92685899	     -1.07839063	     -0.52834430	      0.91411838	      0.01667806	     23.26747140	      0.45755981	     -7.51763110	    -13.82160944	     -3.40882917	      4.86457798	     -9.36666907	      2.21444651	     -8.47079368	    -14.95641231	     16.94986869	     -5.06183340	    -10.51117023	     -1.45495850	    -10.61393405
      2.86000000	      2.01370775	     -0.73100799	     -0.75286975	     -0.51832658	      0.91158236	      0.01697062	     23.18717727	      0.34261196	     -7.57052004	    -11.16309305	     -3.39956279	      5.21503818	     -9.88018101	      2.31832348	     -8.18979704	    -15.07984809	     17.40978227	     -4.89224625	    -10.35922582	     -1.65145230	    -10.87581145
      2.87000000	      1.93498539	     -0.55134833	     -0.45418585	     -0.50830280	      0.90902178	      0.01735477	     23.16362302	      0.22867051	     -7.55289643	     -9.02561962	     -3.33155583	      5.56991701	    -10.39477863	      2.39514541	     -7.91947482	    -15.27886375	     17.85280624	     -4.71438616	    -10.25877271	     -1.83952590	    -11.06368661
      2.88000000	      1.85935683	     -0.37808527	     -0.19468748	     -0.49827725	      0.90643525	      0.01783829	     23.24736263	      0.10770240	     -7.47494935	     -7.48026240	     -3.24351047	      5.79806915	    -10.89040067	      2.46163430	     -7.65315076	    -15.53287943	     18.30014042	     -4.57897641	    -10.17749752	     -2.02949232	    -11.18269455
      2.89000000	      1.86643297	     -0.26552314	      0.03867259	     -0.48815558	      0.90399722	      0.01837699	     23.32676511	      0.02794922	     -7.39181044	     -6.52407099	     -3.08140305	      6.11204067	    -11.46363682	      2.45559320	     -7.44064832	    -15.82960126	     18.65586991	     -4.40414963	    -10.19882195	     -2.14384400	    -11.26503188
      2.90000000	      1.90149695	     -0.18310504	      0.20909435	     -0.47793506	      0.90165879	      0.01903399	     23.47617070	     -0.02315949	     -7.24868131	     -6.18572921	     -2.87924534	      6.34145577	    -12.06121927	      2.41794583	     -7.28638168	    -16.15750292	     18.92020893	     -4.24245805	    -10.25716125	     -2.22681935	    -11.27372173
      2.91000000	      1.97418709	     -0.15033174	      0.33531632	     -0.46761803	      0.89948385	      0.01979372	     23.66889708	     -0.02564504	     -7.03882941	     -6.42714790	     -2.72087364	      6.46078120	    -12.68387529	      2.32592897	     -7.15626264	    -16.53163847	     19.07938642	     -4.08401393	    -10.36525387	     -2.25348738	    -11.23190740
      2.92000000	      2.06424004	     -0.16222063	      0.40528809	     -0.45713087	      0.89747134	      0.02066541	     23.91306672	      0.02479811	     -6.78718669	     -7.19803676	     -2.62640144	      6.44021226	    -13.33275965	      2.19187188	     -7.06707055	    -16.91223229	     19.19720714	     -3.96150410	    -10.48654471	     -2.22633623	    -11.16486517
      2.93000000	      2.18128859	     -0.23595444	      0.41604531	     -0.44642836	      0.89568148	      0.02168520	     24.16133123	      0.15945220	     -6.49685847	     -8.38620562	     -2.60255456	      6.26274322	    -14.01323844	      1.99640695	     -7.02453750	    -17.31188372	     19.18368989	     -3.79647385	    -10.62634350	     -2.13253347	    -11.03858725
      2.94000000	      2.30344339	     -0.37767641	      0.37832196	     -0.43550559	      0.89412628	      0.02286851	     24.39700430	      0.39307506	     -6.18167940	     -9.84870427	     -2.76357158	      5.71122351	    -14.69120094	      1.73077989	     -7.00607464	    -17.74825370	     19.05669690	     -3.50461166	    -10.75756621	     -1.96871941	    -10.86370252
      2.95000000	      2.38500700	     -0.59615676	      0.30593530	     -0.42432147	      0.89276555	      0.02419795	     24.65439457	      0.72937184	     -5.89294513	    -11.49925738	     -3.03854972	      5.10891772	    -15.30564920	      1.38395057	     -7.02375113	    -18.24555442	     18.82865146	     -3.27938230	    -10.81724617	     -1.72197897	    -10.66938274
      2.96000000	      2.42493810	     -0.88778445	      0.21424354	     -0.41286813	      0.89164043	      0.02566453	     24.90774944	      1.16165347	     -5.64944678	    -13.21765945	     -3.45570747	      4.36704432	    -15.84815405	      0.95700337	     -7.04362096	    -18.81395635	     18.46177714	     -3.02234072	    -10.80138476	     -1.39965153	    -10.46210360
      2.97000000	      2.40801343	     -1.24371795	      0.10473594	     -0.40115460	      0.89075419	      0.02727079	     25.16588679	      1.68063870	     -5.44632087	    -14.92982734	     -3.97850583	      3.55313413	    -16.28587548	      0.45859856	     -7.07000818	    -19.47908905	     17.93867170	     -2.75212601	    -10.69339773	     -1.01293814	    -10.23759718
      2.98000000	      2.32630112	     -1.64879200	     -0.01667655	     -0.38919916	      0.89011757	      0.02899795	     25.43930387	      2.26602543	     -5.27723741	    -16.59795841	     -4.56872108	      2.72572212	    -16.59373844	     -0.09539821	     -7.08794762	    -20.26249029	     17.23287689	     -2.48184228	    -10.48609173	     -0.58052220	    -10.00338095
      2.99000000	      2.18434693	     -2.07257582	     -0.14185083	     -0.37702100	      0.88974301	      0.03081278	     25.72433708	      2.87893200	     -5.12574791	    -18.20360977	     -5.14887961	      1.93572650	    -16.75967592	     -0.67434774	     -7.07789079	    -21.18336113	     16.31656044	     -2.21288609	    -10.18547459	     -0.13451169	     -9.77086376
      3.00000000	      1.99888154	     -2.48130590	     -0.26308475	     -0.36465419	      0.88965272	      0.03267389	     26.00480369	      3.47858587	     -4.98158710	    -19.74862590	     -5.62107459	      1.21178839	    -16.77610235	     -1.24332248	     -7.02707972	    -22.26885938	     15.13920048	     -1.93184606	     -9.81643531	      0.28848956	     -9.55262040
      3.01000000	      1.78204096	     -2.87095575	     -0.40297434	     -0.35210905	      0.88983474	      0.03458405	     26.26657269	      4.06476321	     -4.83301807	    -21.23414912	     -5.98015473	      0.64647348	    -16.64902500	     -1.79280795	     -6.97770516	    -23.52414007	     13.74001778	     -1.66388799	     -9.39120208	      0.68291724	     -9.30564390
